<svg width="34" height="34" viewBox="0 0 34 34" fill="none" xmlns="http://www.w3.org/2000/svg">
<circle cx="22" cy="29" r="4" fill="#BCFF5E"/>
<path d="M21.7881 20.1786L22.1429 19.645C23.6381 17.4035 26.4483 16.4398 29.0044 17.2921" stroke="white" stroke-width="1.5" stroke-linecap="round" stroke-linejoin="round"/>
<path d="M14.4184 18.0577L16.0191 10.0757L17.7665 10.9494C18.4153 11.2733 19.2038 11.0655 19.6086 10.4638L21.1346 8.17355C21.5155 7.60112 21.4402 6.83951 20.9545 6.35279L19.0337 4.43199C18.1431 3.54118 16.7202 3.4764 15.7523 4.2826C11.2076 8.06951 7.80874 13.0486 5.93758 18.6606L5.13725 21.0429C4.73803 22.2464 5.17095 23.5695 6.20436 24.3043L8.24655 25.7635C12.1876 28.5792 17.2912 29.1941 21.7882 27.3949L23.2315 30.2814" stroke="white" stroke-width="1.5" stroke-linecap="round" stroke-linejoin="round"/>
<path d="M21.7885 18.734C19.1665 16.9865 15.751 16.9865 13.1289 18.734" stroke="white" stroke-width="1.5" stroke-linecap="round" stroke-linejoin="round"/>
</svg>
