<svg width="48" height="48" viewBox="0 0 48 48" fill="none" xmlns="http://www.w3.org/2000/svg">
<circle cx="32" cy="40" r="8" fill="#BCFF5E"/>
<path d="M31.1836 28.768L31.7158 27.9676C33.9586 24.6053 38.174 23.1598 42.0081 24.4382" stroke="#323232" stroke-width="2" stroke-linecap="round" stroke-linejoin="round"/>
<path d="M20.1286 25.5866L22.5296 13.6136L25.1507 14.9242C26.124 15.4101 27.3066 15.0984 27.9139 14.1959L30.2028 10.7604C30.7743 9.9018 30.6613 8.75939 29.9327 8.02931L27.0515 5.14811C25.7156 3.81189 23.5813 3.71472 22.1295 4.92402C15.3124 10.6044 10.2141 18.073 7.40735 26.491L6.20685 30.0645C5.60802 31.8697 6.2574 33.8544 7.80752 34.9565L10.8708 37.1454C16.7823 41.369 24.4378 42.2912 31.1833 39.5925L33.3482 43.9223" stroke="#323232" stroke-width="2" stroke-linecap="round" stroke-linejoin="round"/>
<path d="M31.1828 26.6011C27.2497 23.9798 22.1264 23.9798 18.1934 26.6011" stroke="#323232" stroke-width="2" stroke-linecap="round" stroke-linejoin="round"/>
</svg>
