<svg width="20" height="14" viewBox="0 0 20 14" fill="none" xmlns="http://www.w3.org/2000/svg">
<path d="M7.57043 13.8201C7.38043 13.8201 7.19043 13.7501 7.04043 13.6001L0.97043 7.53012C0.68043 7.24012 0.68043 6.76012 0.97043 6.47012L7.04043 0.400117C7.33043 0.110117 7.81043 0.110117 8.10043 0.400117C8.39043 0.690117 8.39043 1.17012 8.10043 1.46012L2.56043 7.00012L8.10043 12.5401C8.39043 12.8301 8.39043 13.3101 8.10043 13.6001C7.96043 13.7501 7.76043 13.8201 7.57043 13.8201Z" fill="#AEAEB2"/>
<path d="M18.4999 7.75H1.66992C1.25992 7.75 0.919922 7.41 0.919922 7C0.919922 6.59 1.25992 6.25 1.66992 6.25H18.4999C18.9099 6.25 19.2499 6.59 19.2499 7C19.2499 7.41 18.9099 7.75 18.4999 7.75Z" fill="#AEAEB2"/>
</svg>
