<svg width="20" height="14" viewBox="0 0 20 14" fill="none" xmlns="http://www.w3.org/2000/svg">
<path d="M12.4986 0.206721C12.6886 0.208577 12.8779 0.280429 13.0265 0.431886L19.0369 6.56088C19.324 6.8537 19.3194 7.33368 19.0265 7.62083L12.8975 13.6313C12.6047 13.9184 12.1247 13.9137 11.8376 13.6209C11.5504 13.3281 11.5551 12.8481 11.8479 12.561L17.4418 7.07533L11.9562 1.48148C11.669 1.18866 11.6737 0.708687 11.9665 0.421534C12.108 0.272908 12.3086 0.204865 12.4986 0.206721Z" fill="#AEAEB2"/>
<path d="M1.51068 6.16992L18.3399 6.3343C18.7499 6.3383 19.0865 6.68161 19.0825 7.09159C19.0785 7.50157 18.7352 7.83823 18.3252 7.83423L1.49603 7.66985C1.08605 7.66585 0.74939 7.32254 0.753395 6.91256C0.757399 6.50258 1.1007 6.16592 1.51068 6.16992Z" fill="#AEAEB2"/>
</svg>
