<svg width="26" height="20" viewBox="0 0 26 20" fill="none" xmlns="http://www.w3.org/2000/svg">
<path d="M16.2398 19.0932C15.9865 19.0932 15.7332 18.9999 15.5332 18.7999C15.1465 18.4132 15.1465 17.7732 15.5332 17.3866L22.9198 9.99991L15.5332 2.61325C15.1465 2.22658 15.1465 1.58658 15.5332 1.19991C15.9198 0.813245 16.5598 0.813245 16.9465 1.19991L25.0398 9.29325C25.4265 9.67991 25.4265 10.3199 25.0398 10.7066L16.9465 18.7999C16.7465 18.9999 16.4932 19.0932 16.2398 19.0932Z" fill="#1C1C1E"/>
<path d="M24.107 11H1.66699C1.12033 11 0.666992 10.5467 0.666992 10C0.666992 9.45333 1.12033 9 1.66699 9H24.107C24.6537 9 25.107 9.45333 25.107 10C25.107 10.5467 24.6537 11 24.107 11Z" fill="#1C1C1E"/>
</svg>
