<svg width="26" height="20" viewBox="0 0 26 20" fill="none" xmlns="http://www.w3.org/2000/svg">
<path d="M9.59739 0.968312C9.85068 0.963866 10.1056 1.05274 10.3091 1.2492C10.7025 1.62901 10.7137 2.26892 10.3339 2.66231L3.07804 10.1775L10.5932 17.4334C10.9866 17.8132 10.9979 18.4531 10.618 18.8465C10.2382 19.2399 9.59832 19.2511 9.20492 18.8713L0.970769 10.9213C0.577374 10.5415 0.56614 9.90155 0.94596 9.50816L8.89598 1.274C9.09244 1.07052 9.34409 0.972759 9.59739 0.968312Z" fill="#1C1C1E"/>
<path d="M1.87421 9.19839L24.3107 8.80448C24.8573 8.79489 25.3186 9.24019 25.3281 9.78678C25.3377 10.3334 24.8924 10.7946 24.3459 10.8042L1.90931 11.1981C1.36273 11.2077 0.901511 10.7624 0.891915 10.2158C0.882319 9.6692 1.32762 9.20798 1.87421 9.19839Z" fill="#1C1C1E"/>
</svg>
