<svg width="20" height="20" viewBox="0 0 20 20" fill="none" xmlns="http://www.w3.org/2000/svg">
<path d="M10.0003 1.66666C5.40033 1.66666 1.66699 5.39999 1.66699 9.99999C1.66699 14.6 5.40033 18.3333 10.0003 18.3333C14.6003 18.3333 18.3337 14.6 18.3337 9.99999C18.3337 5.39999 14.6003 1.66666 10.0003 1.66666ZM13.3587 10.4417L10.8587 12.9417C10.7337 13.0667 10.5753 13.125 10.417 13.125C10.2587 13.125 10.1003 13.0667 9.97533 12.9417C9.73366 12.7 9.73366 12.3 9.97533 12.0583L11.4087 10.625H7.08366C6.74199 10.625 6.45866 10.3417 6.45866 9.99999C6.45866 9.65832 6.74199 9.37499 7.08366 9.37499H11.4087L9.97533 7.94166C9.73366 7.69999 9.73366 7.29999 9.97533 7.05832C10.217 6.81666 10.617 6.81666 10.8587 7.05832L13.3587 9.55832C13.6003 9.79999 13.6003 10.2 13.3587 10.4417Z" fill="#064BB4"/>
</svg>
