<svg width="48" height="49" viewBox="0 0 48 49" fill="none" xmlns="http://www.w3.org/2000/svg">
<circle cx="32" cy="40.5" r="8" fill="#BCFF5E"/>
<path d="M31.183 29.268L31.7152 28.4677C33.9579 25.1054 38.1734 23.6598 42.0075 24.9382" stroke="#1C1C1E" stroke-width="2" stroke-linecap="round" stroke-linejoin="round"/>
<path d="M20.1284 26.0867L22.5294 14.1137L25.1505 15.4242C26.1237 15.9101 27.3063 15.5984 27.9136 14.6959L30.2026 11.2605C30.774 10.4018 30.661 9.25943 29.9325 8.52936L27.0513 5.64816C25.7154 4.31194 23.581 4.21477 22.1292 5.42406C15.3121 11.1044 10.2138 18.5731 7.40708 26.991L6.20658 30.5645C5.60774 32.3698 6.25712 34.3545 7.80724 35.4566L10.8705 37.6455C16.7821 41.869 24.4375 42.7913 31.183 40.0925L33.3479 44.4223" stroke="#1C1C1E" stroke-width="2" stroke-linecap="round" stroke-linejoin="round"/>
<path d="M31.183 27.1011C27.2499 24.4798 22.1266 24.4798 18.1936 27.1011" stroke="#1C1C1E" stroke-width="2" stroke-linecap="round" stroke-linejoin="round"/>
</svg>
