<svg width="28" height="28" viewBox="0 0 28 28" fill="none" xmlns="http://www.w3.org/2000/svg">
<g clip-path="url(#clip0_119_2699)">
<path d="M12.4733 13.5266C12.3478 13.4011 12.1775 13.3306 12 13.3306C11.8224 13.3306 11.6522 13.4011 11.5266 13.5266C11.4011 13.6522 11.3306 13.8224 11.3306 14C11.3306 14.1775 11.4011 14.3478 11.5266 14.4733L13.5266 16.4733C13.5889 16.5351 13.6628 16.584 13.744 16.6172C13.8252 16.6503 13.9122 16.6671 14 16.6666C14.0912 16.6637 14.1809 16.6421 14.2635 16.6031C14.3461 16.5642 14.4197 16.5086 14.48 16.44L19.1466 11.1066C19.2544 10.9729 19.3063 10.8026 19.2917 10.6315C19.277 10.4603 19.1968 10.3015 19.0678 10.188C18.9389 10.0745 18.7711 10.0152 18.5995 10.0224C18.4278 10.0296 18.2656 10.1028 18.1466 10.2266L14 15.0266L12.4733 13.5266Z" fill="#064BB4"/>
<path d="M20 13.3333C19.8231 13.3333 19.6536 13.4036 19.5286 13.5286C19.4035 13.6536 19.3333 13.8232 19.3333 14C19.3333 15.4145 18.7714 16.771 17.7712 17.7712C16.771 18.7714 15.4144 19.3333 14 19.3333C12.9467 19.3328 11.9171 19.0205 11.0411 18.4357C10.1651 17.8509 9.48191 17.0198 9.07761 16.0472C8.67332 15.0746 8.56605 14.004 8.76935 12.9706C8.97265 11.9371 9.4774 10.987 10.22 10.24C10.7138 9.73957 11.3024 9.34267 11.9515 9.07252C12.6005 8.80237 13.2969 8.66439 14 8.66665C14.4263 8.66932 14.851 8.7185 15.2666 8.81331C15.3536 8.84022 15.4452 8.84902 15.5357 8.83918C15.6262 8.82934 15.7137 8.80106 15.7929 8.7561C15.8721 8.71113 15.9412 8.65043 15.996 8.57773C16.0508 8.50503 16.0901 8.42187 16.1115 8.33339C16.133 8.24491 16.1361 8.15297 16.1206 8.06325C16.1052 7.97352 16.0715 7.88792 16.0217 7.81171C15.9719 7.7355 15.907 7.67029 15.831 7.62012C15.755 7.56995 15.6696 7.53587 15.58 7.51998C15.0621 7.39814 14.532 7.33552 14 7.33331C12.6828 7.34016 11.3973 7.73699 10.3055 8.47375C9.21369 9.2105 8.3646 10.2542 7.86537 11.473C7.36613 12.6918 7.23913 14.0313 7.50038 15.3222C7.76163 16.6132 8.39943 17.7978 9.33329 18.7266C10.5711 19.965 12.2491 20.6626 14 20.6666C15.7681 20.6666 17.4638 19.9643 18.714 18.714C19.9642 17.4638 20.6666 15.7681 20.6666 14C20.6666 13.8232 20.5964 13.6536 20.4714 13.5286C20.3463 13.4036 20.1768 13.3333 20 13.3333Z" fill="#064BB4"/>
</g>
<rect x="0.5" y="0.5" width="27" height="27" rx="13.5" stroke="#E9EBED"/>
<defs>
<clipPath id="clip0_119_2699">
<rect width="16" height="16" fill="white" transform="translate(6 6)"/>
</clipPath>
</defs>
</svg>
