<svg width="50" height="50" viewBox="0 0 50 50" fill="none" xmlns="http://www.w3.org/2000/svg">
<path d="M27.2229 37.2271C25.8005 38.6517 25.0011 40.5822 25 42.5953V45.0084" stroke="#323232" stroke-width="2" stroke-linecap="round" stroke-linejoin="round"/>
<path d="M22.7773 37.2271C24.1998 38.6517 24.9992 40.5822 25.0003 42.5953V45.0084" stroke="#323232" stroke-width="2" stroke-linecap="round" stroke-linejoin="round"/>
<path d="M35.5048 25.2221C28.7559 27.8891 21.2451 27.8891 14.4961 25.2221" stroke="#323232" stroke-width="2" stroke-linecap="round" stroke-linejoin="round"/>
<path d="M39.0059 17.9971H45.0084" stroke="#323232" stroke-width="2" stroke-linecap="round" stroke-linejoin="round"/>
<path d="M42.0071 20.9983L39.0059 17.9971L42.0071 14.9958" stroke="#323232" stroke-width="2" stroke-linecap="round" stroke-linejoin="round"/>
<path d="M10.9947 17.9971H4.99219" stroke="#323232" stroke-width="2" stroke-linecap="round" stroke-linejoin="round"/>
<path d="M7.99316 14.9958L10.9944 17.9971L7.99316 20.9983" stroke="#323232" stroke-width="2" stroke-linecap="round" stroke-linejoin="round"/>
<path d="M36.1166 4.99164L34.9161 8.30902C32.8474 13.9975 33.2091 20.2865 35.9165 25.7003V25.7003C38.861 31.5911 39.0173 38.4899 36.3427 44.5081L36.1226 45.0063" stroke="#323232" stroke-width="2" stroke-linecap="round" stroke-linejoin="round"/>
<path d="M13.8837 4.99164L15.0842 8.30902C17.1528 13.9975 16.7911 20.2865 14.0837 25.7003V25.7003C11.1392 31.5911 10.9829 38.4899 13.6576 44.5081L13.8777 45.0063" stroke="#323232" stroke-width="2" stroke-linecap="round" stroke-linejoin="round"/>
<path d="M16.0186 11.6605H33.982" stroke="#323232" stroke-width="2" stroke-linecap="round" stroke-linejoin="round"/>
</svg>
