<svg width="40" height="40" viewBox="0 0 40 40" fill="none" xmlns="http://www.w3.org/2000/svg">
<circle cx="30" cy="32" r="4" fill="#BCFF5E"/>
<path d="M24 34.3334H16C8.76001 34.3334 5.66667 31.24 5.66667 24V16C5.66667 8.76002 8.76001 5.66669 16 5.66669H24C31.24 5.66669 34.3333 8.76002 34.3333 16V24C34.3333 31.24 31.24 34.3334 24 34.3334ZM16 7.66669C9.85334 7.66669 7.66667 9.85335 7.66667 16V24C7.66667 30.1467 9.85334 32.3334 16 32.3334H24C30.1467 32.3334 32.3333 30.1467 32.3333 24V16C32.3333 9.85335 30.1467 7.66669 24 7.66669H16Z" fill="white"/>
<path d="M18.3467 25.8267C17.7867 25.8267 17.2667 25.6933 16.8 25.4267C15.7333 24.8133 15.12 23.56 15.12 21.9733V18.0267C15.12 16.4533 15.7333 15.1867 16.8 14.5733C17.8667 13.96 19.2533 14.0533 20.6267 14.8533L24.0533 16.8267C25.4133 17.6133 26.2 18.7733 26.2 20C26.2 21.2267 25.4133 22.3867 24.0533 23.1733L20.6267 25.1467C19.8533 25.6 19.0667 25.8267 18.3467 25.8267ZM18.36 16.1733C18.1467 16.1733 17.96 16.2133 17.8133 16.3067C17.3867 16.56 17.1333 17.1867 17.1333 18.0267V21.9733C17.1333 22.8133 17.3733 23.44 17.8133 23.6933C18.24 23.9467 18.9067 23.84 19.64 23.4133L23.0667 21.44C23.8 21.0133 24.2133 20.4933 24.2133 20C24.2133 19.5067 23.8 18.9733 23.0667 18.56L19.64 16.5867C19.16 16.3067 18.72 16.1733 18.36 16.1733Z" fill="white"/>
</svg>
