<svg width="314" height="6" viewBox="0 0 314 6" fill="none" xmlns="http://www.w3.org/2000/svg">
<path d="M0.333333 3C0.333333 4.47276 1.52724 5.66667 3 5.66667C4.47276 5.66667 5.66667 4.47276 5.66667 3C5.66667 1.52724 4.47276 0.333333 3 0.333333C1.52724 0.333333 0.333333 1.52724 0.333333 3ZM308.333 3C308.333 4.47276 309.527 5.66667 311 5.66667C312.473 5.66667 313.667 4.47276 313.667 3C313.667 1.52724 312.473 0.333333 311 0.333333C309.527 0.333333 308.333 1.52724 308.333 3ZM3 3.5H311V2.5H3V3.5Z" fill="#E9EBED"/>
</svg>
